<?xml version="1.0" encoding="UTF-8"?>
<svg xmlns="http://www.w3.org/2000/svg" width="499.00mm" height="381.00mm" viewBox="0 0 499.000 381.000">
  <path stroke="#ff0000" stroke-width="0.25" fill="none" d="M139.000 21.000 L147.333 21.000 L147.333 24.000 L155.667 24.000 L155.667 21.000 L164.000 21.000 L164.000 24.000 L172.333 24.000 L172.333 21.000 L180.667 21.000 L180.667 24.000 L189.000 24.000 L189.000 21.000 L197.333 21.000 L197.333 24.000 L205.667 24.000 L205.667 21.000 L214.000 21.000 L214.000 24.000 L222.333 24.000 L222.333 21.000 L230.667 21.000 L230.667 24.000 L239.000 24.000 L239.000 29.333 L236.000 29.333 L236.000 37.667 L239.000 37.667 L239.000 46.000 L236.000 46.000 L236.000 54.333 L239.000 54.333 L239.000 62.667 L236.000 62.667 L236.000 71.000 L239.000 71.000 L239.000 79.333 L236.000 79.333 L236.000 87.667 L239.000 87.667 L239.000 96.000 L236.000 96.000 L236.000 104.333 L239.000 104.333 L239.000 112.667 L236.000 112.667 L236.000 121.000 L230.667 121.000 L230.667 118.000 L222.333 118.000 L222.333 121.000 L214.000 121.000 L214.000 118.000 L205.667 118.000 L205.667 121.000 L197.333 121.000 L197.333 118.000 L189.000 118.000 L189.000 121.000 L180.667 121.000 L180.667 118.000 L172.333 118.000 L172.333 121.000 L164.000 121.000 L164.000 118.000 L155.667 118.000 L155.667 121.000 L147.333 121.000 L147.333 118.000 L139.000 118.000 L139.000 112.667 L142.000 112.667 L142.000 104.333 L139.000 104.333 L139.000 96.000 L142.000 96.000 L142.000 87.667 L139.000 87.667 L139.000 79.333 L142.000 79.333 L142.000 71.000 L139.000 71.000 L139.000 62.667 L142.000 62.667 L142.000 54.333 L139.000 54.333 L139.000 46.000 L142.000 46.000 L142.000 37.667 L139.000 37.667 L139.000 29.333 L142.000 29.333 L142.000 21.000 L139.000 21.000 Z"/>
  <path stroke="#ff0000" stroke-width="0.25" fill="none" d="M139.000 257.000 L147.333 257.000 L147.333 260.000 L155.667 260.000 L155.667 257.000 L164.000 257.000 L164.000 260.000 L172.333 260.000 L172.333 257.000 L180.667 257.000 L180.667 260.000 L189.000 260.000 L189.000 257.000 L197.333 257.000 L197.333 260.000 L205.667 260.000 L205.667 257.000 L214.000 257.000 L214.000 260.000 L222.333 260.000 L222.333 257.000 L230.667 257.000 L230.667 260.000 L239.000 260.000 L239.000 265.333 L236.000 265.333 L236.000 273.667 L239.000 273.667 L239.000 282.000 L236.000 282.000 L236.000 290.333 L239.000 290.333 L239.000 298.667 L236.000 298.667 L236.000 307.000 L239.000 307.000 L239.000 315.333 L236.000 315.333 L236.000 323.667 L239.000 323.667 L239.000 332.000 L236.000 332.000 L236.000 340.333 L239.000 340.333 L239.000 348.667 L236.000 348.667 L236.000 357.000 L230.667 357.000 L230.667 354.000 L222.333 354.000 L222.333 357.000 L214.000 357.000 L214.000 354.000 L205.667 354.000 L205.667 357.000 L197.333 357.000 L197.333 354.000 L189.000 354.000 L189.000 357.000 L180.667 357.000 L180.667 354.000 L172.333 354.000 L172.333 357.000 L164.000 357.000 L164.000 354.000 L155.667 354.000 L155.667 357.000 L147.333 357.000 L147.333 354.000 L139.000 354.000 L139.000 348.667 L142.000 348.667 L142.000 340.333 L139.000 340.333 L139.000 332.000 L142.000 332.000 L142.000 323.667 L139.000 323.667 L139.000 315.333 L142.000 315.333 L142.000 307.000 L139.000 307.000 L139.000 298.667 L142.000 298.667 L142.000 290.333 L139.000 290.333 L139.000 282.000 L142.000 282.000 L142.000 273.667 L139.000 273.667 L139.000 265.333 L142.000 265.333 L142.000 257.000 L139.000 257.000 Z"/>
  <path stroke="#ff0000" stroke-width="0.25" fill="none" d="M139.000 139.000 L147.333 139.000 L147.333 136.000 L155.667 136.000 L155.667 139.000 L164.000 139.000 L164.000 136.000 L172.333 136.000 L172.333 139.000 L180.667 139.000 L180.667 136.000 L189.000 136.000 L189.000 139.000 L197.333 139.000 L197.333 136.000 L205.667 136.000 L205.667 139.000 L214.000 139.000 L214.000 136.000 L222.333 136.000 L222.333 139.000 L230.667 139.000 L230.667 136.000 L239.000 136.000 L239.000 147.333 L242.000 147.333 L242.000 155.667 L239.000 155.667 L239.000 164.000 L242.000 164.000 L242.000 172.333 L239.000 172.333 L239.000 180.667 L242.000 180.667 L242.000 189.000 L239.000 189.000 L239.000 197.333 L242.000 197.333 L242.000 205.667 L239.000 205.667 L239.000 214.000 L242.000 214.000 L242.000 222.333 L239.000 222.333 L239.000 230.667 L242.000 230.667 L242.000 239.000 L230.667 239.000 L230.667 242.000 L222.333 242.000 L222.333 239.000 L214.000 239.000 L214.000 242.000 L205.667 242.000 L205.667 239.000 L197.333 239.000 L197.333 242.000 L189.000 242.000 L189.000 239.000 L180.667 239.000 L180.667 242.000 L172.333 242.000 L172.333 239.000 L164.000 239.000 L164.000 242.000 L155.667 242.000 L155.667 239.000 L147.333 239.000 L147.333 242.000 L139.000 242.000 L139.000 230.667 L136.000 230.667 L136.000 222.333 L139.000 222.333 L139.000 214.000 L136.000 214.000 L136.000 205.667 L139.000 205.667 L139.000 197.333 L136.000 197.333 L136.000 189.000 L139.000 189.000 L139.000 180.667 L136.000 180.667 L136.000 172.333 L139.000 172.333 L139.000 164.000 L136.000 164.000 L136.000 155.667 L139.000 155.667 L139.000 147.333 L136.000 147.333 L136.000 139.000 L139.000 139.000 Z"/>
  <path stroke="#ff0000" stroke-width="0.25" fill="none" d="M375.000 139.000 L383.333 139.000 L383.333 136.000 L391.667 136.000 L391.667 139.000 L400.000 139.000 L400.000 136.000 L408.333 136.000 L408.333 139.000 L416.667 139.000 L416.667 136.000 L425.000 136.000 L425.000 139.000 L433.333 139.000 L433.333 136.000 L441.667 136.000 L441.667 139.000 L450.000 139.000 L450.000 136.000 L458.333 136.000 L458.333 139.000 L466.667 139.000 L466.667 136.000 L475.000 136.000 L475.000 147.333 L478.000 147.333 L478.000 155.667 L475.000 155.667 L475.000 164.000 L478.000 164.000 L478.000 172.333 L475.000 172.333 L475.000 180.667 L478.000 180.667 L478.000 189.000 L475.000 189.000 L475.000 197.333 L478.000 197.333 L478.000 205.667 L475.000 205.667 L475.000 214.000 L478.000 214.000 L478.000 222.333 L475.000 222.333 L475.000 230.667 L478.000 230.667 L478.000 239.000 L466.667 239.000 L466.667 242.000 L458.333 242.000 L458.333 239.000 L450.000 239.000 L450.000 242.000 L441.667 242.000 L441.667 239.000 L433.333 239.000 L433.333 242.000 L425.000 242.000 L425.000 239.000 L416.667 239.000 L416.667 242.000 L408.333 242.000 L408.333 239.000 L400.000 239.000 L400.000 242.000 L391.667 242.000 L391.667 239.000 L383.333 239.000 L383.333 242.000 L375.000 242.000 L375.000 230.667 L372.000 230.667 L372.000 222.333 L375.000 222.333 L375.000 214.000 L372.000 214.000 L372.000 205.667 L375.000 205.667 L375.000 197.333 L372.000 197.333 L372.000 189.000 L375.000 189.000 L375.000 180.667 L372.000 180.667 L372.000 172.333 L375.000 172.333 L375.000 164.000 L372.000 164.000 L372.000 155.667 L375.000 155.667 L375.000 147.333 L372.000 147.333 L372.000 139.000 L375.000 139.000 Z"/>
  <path stroke="#ff0000" stroke-width="0.25" fill="none" d="M21.000 139.000 L29.333 139.000 L29.333 136.000 L37.667 136.000 L37.667 139.000 L46.000 139.000 L46.000 136.000 L54.333 136.000 L54.333 139.000 L62.667 139.000 L62.667 136.000 L71.000 136.000 L71.000 139.000 L79.333 139.000 L79.333 136.000 L87.667 136.000 L87.667 139.000 L96.000 139.000 L96.000 136.000 L104.333 136.000 L104.333 139.000 L112.667 139.000 L112.667 136.000 L121.000 136.000 L121.000 147.333 L118.000 147.333 L118.000 155.667 L121.000 155.667 L121.000 164.000 L118.000 164.000 L118.000 172.333 L121.000 172.333 L121.000 180.667 L118.000 180.667 L118.000 189.000 L121.000 189.000 L121.000 197.333 L118.000 197.333 L118.000 205.667 L121.000 205.667 L121.000 214.000 L118.000 214.000 L118.000 222.333 L121.000 222.333 L121.000 230.667 L118.000 230.667 L118.000 239.000 L112.667 239.000 L112.667 242.000 L104.333 242.000 L104.333 239.000 L96.000 239.000 L96.000 242.000 L87.667 242.000 L87.667 239.000 L79.333 239.000 L79.333 242.000 L71.000 242.000 L71.000 239.000 L62.667 239.000 L62.667 242.000 L54.333 242.000 L54.333 239.000 L46.000 239.000 L46.000 242.000 L37.667 242.000 L37.667 239.000 L29.333 239.000 L29.333 242.000 L21.000 242.000 L21.000 230.667 L24.000 230.667 L24.000 222.333 L21.000 222.333 L21.000 214.000 L24.000 214.000 L24.000 205.667 L21.000 205.667 L21.000 197.333 L24.000 197.333 L24.000 189.000 L21.000 189.000 L21.000 180.667 L24.000 180.667 L24.000 172.333 L21.000 172.333 L21.000 164.000 L24.000 164.000 L24.000 155.667 L21.000 155.667 L21.000 147.333 L24.000 147.333 L24.000 139.000 L21.000 139.000 Z"/>
  <path stroke="#ff0000" stroke-width="0.25" fill="none" d="M257.000 139.000 L265.333 139.000 L265.333 136.000 L273.667 136.000 L273.667 139.000 L282.000 139.000 L282.000 136.000 L290.333 136.000 L290.333 139.000 L298.667 139.000 L298.667 136.000 L307.000 136.000 L307.000 139.000 L315.333 139.000 L315.333 136.000 L323.667 136.000 L323.667 139.000 L332.000 139.000 L332.000 136.000 L340.333 136.000 L340.333 139.000 L348.667 139.000 L348.667 136.000 L357.000 136.000 L357.000 147.333 L354.000 147.333 L354.000 155.667 L357.000 155.667 L357.000 164.000 L354.000 164.000 L354.000 172.333 L357.000 172.333 L357.000 180.667 L354.000 180.667 L354.000 189.000 L357.000 189.000 L357.000 197.333 L354.000 197.333 L354.000 205.667 L357.000 205.667 L357.000 214.000 L354.000 214.000 L354.000 222.333 L357.000 222.333 L357.000 230.667 L354.000 230.667 L354.000 239.000 L348.667 239.000 L348.667 242.000 L340.333 242.000 L340.333 239.000 L332.000 239.000 L332.000 242.000 L323.667 242.000 L323.667 239.000 L315.333 239.000 L315.333 242.000 L307.000 242.000 L307.000 239.000 L298.667 239.000 L298.667 242.000 L290.333 242.000 L290.333 239.000 L282.000 239.000 L282.000 242.000 L273.667 242.000 L273.667 239.000 L265.333 239.000 L265.333 242.000 L257.000 242.000 L257.000 230.667 L260.000 230.667 L260.000 222.333 L257.000 222.333 L257.000 214.000 L260.000 214.000 L260.000 205.667 L257.000 205.667 L257.000 197.333 L260.000 197.333 L260.000 189.000 L257.000 189.000 L257.000 180.667 L260.000 180.667 L260.000 172.333 L257.000 172.333 L257.000 164.000 L260.000 164.000 L260.000 155.667 L257.000 155.667 L257.000 147.333 L260.000 147.333 L260.000 139.000 L257.000 139.000 Z"/>
</svg>
