<?xml version="1.0" encoding="UTF-8" ?>
<svg xmlns="http://www.w3.org/2000/svg" version="1.1" xmlns:xlink="http://www.w3.org/1999/xlink" viewBox="0 0 816.0 516.0" width="816.0mm" height="516.0mm">
  <g stroke="red" stroke-width="0.25" fill="none">
    <g transform="translate(108.0, 108.0)">
      <polygon points="-100.0,100.0 -93.5,100.0 -84.5,100.0 -84.5,97.0 -75.5,97.0 -75.5,100.0 -66.5,100.0 -66.5,97.0 -57.5,97.0 -57.5,100.0 -48.5,100.0 -48.5,97.0 -39.5,97.0 -39.5,100.0 -30.5,100.0 -30.5,97.0 -21.5,97.0 -21.5,100.0 -12.5,100.0 -12.5,97.0 -3.5,97.0 -3.5,100.0 5.5,100.0 5.5,97.0 14.5,97.0 14.5,100.0 23.5,100.0 23.5,97.0 32.5,97.0 32.5,100.0 41.5,100.0 41.5,97.0 50.5,97.0 50.5,100.0 59.5,100.0 59.5,97.0 68.5,97.0 68.5,100.0 77.5,100.0 77.5,97.0 86.5,97.0 86.5,100.0 100.0,100.0 100.0,93.5 100.0,84.5 103.0,84.5 103.0,75.5 100.0,75.5 100.0,66.5 103.0,66.5 103.0,57.5 100.0,57.5 100.0,48.5 103.0,48.5 103.0,39.5 100.0,39.5 100.0,30.5 103.0,30.5 103.0,21.5 100.0,21.5 100.0,12.5 103.0,12.5 103.0,3.5 100.0,3.5 100.0,-5.5 103.0,-5.5 103.0,-14.5 100.0,-14.5 100.0,-23.5 103.0,-23.5 103.0,-32.5 100.0,-32.5 100.0,-41.5 103.0,-41.5 103.0,-50.5 100.0,-50.5 100.0,-59.5 103.0,-59.5 103.0,-68.5 100.0,-68.5 100.0,-77.5 103.0,-77.5 103.0,-86.5 100.0,-86.5 100.0,-100.0 93.5,-100.0 84.5,-100.0 84.5,-97.0 75.5,-97.0 75.5,-100.0 66.5,-100.0 66.5,-97.0 57.5,-97.0 57.5,-100.0 48.5,-100.0 48.5,-97.0 39.5,-97.0 39.5,-100.0 30.5,-100.0 30.5,-97.0 21.5,-97.0 21.5,-100.0 12.5,-100.0 12.5,-97.0 3.5,-97.0 3.5,-100.0 -5.5,-100.0 -5.5,-97.0 -14.5,-97.0 -14.5,-100.0 -23.5,-100.0 -23.5,-97.0 -32.5,-97.0 -32.5,-100.0 -41.5,-100.0 -41.5,-97.0 -50.5,-97.0 -50.5,-100.0 -59.5,-100.0 -59.5,-97.0 -68.5,-97.0 -68.5,-100.0 -77.5,-100.0 -77.5,-97.0 -86.5,-97.0 -86.5,-100.0 -100.0,-100.0 -100.0,-93.5 -100.0,-84.5 -103.0,-84.5 -103.0,-75.5 -100.0,-75.5 -100.0,-66.5 -103.0,-66.5 -103.0,-57.5 -100.0,-57.5 -100.0,-48.5 -103.0,-48.5 -103.0,-39.5 -100.0,-39.5 -100.0,-30.5 -103.0,-30.5 -103.0,-21.5 -100.0,-21.5 -100.0,-12.5 -103.0,-12.5 -103.0,-3.5 -100.0,-3.5 -100.0,5.5 -103.0,5.5 -103.0,14.5 -100.0,14.5 -100.0,23.5 -103.0,23.5 -103.0,32.5 -100.0,32.5 -100.0,41.5 -103.0,41.5 -103.0,50.5 -100.0,50.5 -100.0,59.5 -103.0,59.5 -103.0,68.5 -100.0,68.5 -100.0,77.5 -103.0,77.5 -103.0,86.5 -100.0,86.5 -100.0,100.0" />
    </g>
    <g transform="translate(408.0, 108.0)">
      <polygon points="-100.0,100.0 -93.5,100.0 -84.5,100.0 -84.5,97.0 -75.5,97.0 -75.5,100.0 -66.5,100.0 -66.5,97.0 -57.5,97.0 -57.5,100.0 -48.5,100.0 -48.5,97.0 -39.5,97.0 -39.5,100.0 -30.5,100.0 -30.5,97.0 -21.5,97.0 -21.5,100.0 -12.5,100.0 -12.5,97.0 -3.5,97.0 -3.5,100.0 5.5,100.0 5.5,97.0 14.5,97.0 14.5,100.0 23.5,100.0 23.5,97.0 32.5,97.0 32.5,100.0 41.5,100.0 41.5,97.0 50.5,97.0 50.5,100.0 59.5,100.0 59.5,97.0 68.5,97.0 68.5,100.0 77.5,100.0 77.5,97.0 86.5,97.0 86.5,100.0 100.0,100.0 100.0,93.5 100.0,84.5 103.0,84.5 103.0,75.5 100.0,75.5 100.0,66.5 103.0,66.5 103.0,57.5 100.0,57.5 100.0,48.5 103.0,48.5 103.0,39.5 100.0,39.5 100.0,30.5 103.0,30.5 103.0,21.5 100.0,21.5 100.0,12.5 103.0,12.5 103.0,3.5 100.0,3.5 100.0,-5.5 103.0,-5.5 103.0,-14.5 100.0,-14.5 100.0,-23.5 103.0,-23.5 103.0,-32.5 100.0,-32.5 100.0,-41.5 103.0,-41.5 103.0,-50.5 100.0,-50.5 100.0,-59.5 103.0,-59.5 103.0,-68.5 100.0,-68.5 100.0,-77.5 103.0,-77.5 103.0,-86.5 100.0,-86.5 100.0,-100.0 93.5,-100.0 84.5,-100.0 84.5,-97.0 75.5,-97.0 75.5,-100.0 66.5,-100.0 66.5,-97.0 57.5,-97.0 57.5,-100.0 48.5,-100.0 48.5,-97.0 39.5,-97.0 39.5,-100.0 30.5,-100.0 30.5,-97.0 21.5,-97.0 21.5,-100.0 12.5,-100.0 12.5,-97.0 3.5,-97.0 3.5,-100.0 -5.5,-100.0 -5.5,-97.0 -14.5,-97.0 -14.5,-100.0 -23.5,-100.0 -23.5,-97.0 -32.5,-97.0 -32.5,-100.0 -41.5,-100.0 -41.5,-97.0 -50.5,-97.0 -50.5,-100.0 -59.5,-100.0 -59.5,-97.0 -68.5,-97.0 -68.5,-100.0 -77.5,-100.0 -77.5,-97.0 -86.5,-97.0 -86.5,-100.0 -100.0,-100.0 -100.0,-93.5 -100.0,-84.5 -103.0,-84.5 -103.0,-75.5 -100.0,-75.5 -100.0,-66.5 -103.0,-66.5 -103.0,-57.5 -100.0,-57.5 -100.0,-48.5 -103.0,-48.5 -103.0,-39.5 -100.0,-39.5 -100.0,-30.5 -103.0,-30.5 -103.0,-21.5 -100.0,-21.5 -100.0,-12.5 -103.0,-12.5 -103.0,-3.5 -100.0,-3.5 -100.0,5.5 -103.0,5.5 -103.0,14.5 -100.0,14.5 -100.0,23.5 -103.0,23.5 -103.0,32.5 -100.0,32.5 -100.0,41.5 -103.0,41.5 -103.0,50.5 -100.0,50.5 -100.0,59.5 -103.0,59.5 -103.0,68.5 -100.0,68.5 -100.0,77.5 -103.0,77.5 -103.0,86.5 -100.0,86.5 -100.0,100.0" />
    </g>
    <g transform="translate(108.0, 408.0)">
      <polygon points="-100.0,100.0 -93.5,100.0 -84.5,100.0 -84.5,97.0 -75.5,97.0 -75.5,100.0 -66.5,100.0 -66.5,97.0 -57.5,97.0 -57.5,100.0 -48.5,100.0 -48.5,97.0 -39.5,97.0 -39.5,100.0 -30.5,100.0 -30.5,97.0 -21.5,97.0 -21.5,100.0 -12.5,100.0 -12.5,97.0 -3.5,97.0 -3.5,100.0 5.5,100.0 5.5,97.0 14.5,97.0 14.5,100.0 23.5,100.0 23.5,97.0 32.5,97.0 32.5,100.0 41.5,100.0 41.5,97.0 50.5,97.0 50.5,100.0 59.5,100.0 59.5,97.0 68.5,97.0 68.5,100.0 77.5,100.0 77.5,97.0 86.5,97.0 86.5,100.0 100.0,100.0 100.0,93.5 100.0,84.5 97.0,84.5 97.0,75.5 100.0,75.5 100.0,66.5 97.0,66.5 97.0,57.5 100.0,57.5 100.0,48.5 97.0,48.5 97.0,39.5 100.0,39.5 100.0,30.5 97.0,30.5 97.0,21.5 100.0,21.5 100.0,12.5 97.0,12.5 97.0,3.5 100.0,3.5 100.0,-5.5 97.0,-5.5 97.0,-14.5 100.0,-14.5 100.0,-23.5 97.0,-23.5 97.0,-32.5 100.0,-32.5 100.0,-41.5 97.0,-41.5 97.0,-50.5 100.0,-50.5 100.0,-59.5 97.0,-59.5 97.0,-68.5 100.0,-68.5 100.0,-77.5 97.0,-77.5 97.0,-86.5 100.0,-86.5 100.0,-100.0 93.5,-100.0 84.5,-100.0 84.5,-97.0 75.5,-97.0 75.5,-100.0 66.5,-100.0 66.5,-97.0 57.5,-97.0 57.5,-100.0 48.5,-100.0 48.5,-97.0 39.5,-97.0 39.5,-100.0 30.5,-100.0 30.5,-97.0 21.5,-97.0 21.5,-100.0 12.5,-100.0 12.5,-97.0 3.5,-97.0 3.5,-100.0 -5.5,-100.0 -5.5,-97.0 -14.5,-97.0 -14.5,-100.0 -23.5,-100.0 -23.5,-97.0 -32.5,-97.0 -32.5,-100.0 -41.5,-100.0 -41.5,-97.0 -50.5,-97.0 -50.5,-100.0 -59.5,-100.0 -59.5,-97.0 -68.5,-97.0 -68.5,-100.0 -77.5,-100.0 -77.5,-97.0 -86.5,-97.0 -86.5,-100.0 -100.0,-100.0 -100.0,-93.5 -100.0,-84.5 -97.0,-84.5 -97.0,-75.5 -100.0,-75.5 -100.0,-66.5 -97.0,-66.5 -97.0,-57.5 -100.0,-57.5 -100.0,-48.5 -97.0,-48.5 -97.0,-39.5 -100.0,-39.5 -100.0,-30.5 -97.0,-30.5 -97.0,-21.5 -100.0,-21.5 -100.0,-12.5 -97.0,-12.5 -97.0,-3.5 -100.0,-3.5 -100.0,5.5 -97.0,5.5 -97.0,14.5 -100.0,14.5 -100.0,23.5 -97.0,23.5 -97.0,32.5 -100.0,32.5 -100.0,41.5 -97.0,41.5 -97.0,50.5 -100.0,50.5 -100.0,59.5 -97.0,59.5 -97.0,68.5 -100.0,68.5 -100.0,77.5 -97.0,77.5 -97.0,86.5 -100.0,86.5 -100.0,100.0" />
    </g>
    <g transform="translate(408.0, 408.0)">
      <polygon points="-100.0,100.0 -93.5,100.0 -84.5,100.0 -84.5,97.0 -75.5,97.0 -75.5,100.0 -66.5,100.0 -66.5,97.0 -57.5,97.0 -57.5,100.0 -48.5,100.0 -48.5,97.0 -39.5,97.0 -39.5,100.0 -30.5,100.0 -30.5,97.0 -21.5,97.0 -21.5,100.0 -12.5,100.0 -12.5,97.0 -3.5,97.0 -3.5,100.0 5.5,100.0 5.5,97.0 14.5,97.0 14.5,100.0 23.5,100.0 23.5,97.0 32.5,97.0 32.5,100.0 41.5,100.0 41.5,97.0 50.5,97.0 50.5,100.0 59.5,100.0 59.5,97.0 68.5,97.0 68.5,100.0 77.5,100.0 77.5,97.0 86.5,97.0 86.5,100.0 100.0,100.0 100.0,93.5 100.0,84.5 97.0,84.5 97.0,75.5 100.0,75.5 100.0,66.5 97.0,66.5 97.0,57.5 100.0,57.5 100.0,48.5 97.0,48.5 97.0,39.5 100.0,39.5 100.0,30.5 97.0,30.5 97.0,21.5 100.0,21.5 100.0,12.5 97.0,12.5 97.0,3.5 100.0,3.5 100.0,-5.5 97.0,-5.5 97.0,-14.5 100.0,-14.5 100.0,-23.5 97.0,-23.5 97.0,-32.5 100.0,-32.5 100.0,-41.5 97.0,-41.5 97.0,-50.5 100.0,-50.5 100.0,-59.5 97.0,-59.5 97.0,-68.5 100.0,-68.5 100.0,-77.5 97.0,-77.5 97.0,-86.5 100.0,-86.5 100.0,-100.0 93.5,-100.0 84.5,-100.0 84.5,-97.0 75.5,-97.0 75.5,-100.0 66.5,-100.0 66.5,-97.0 57.5,-97.0 57.5,-100.0 48.5,-100.0 48.5,-97.0 39.5,-97.0 39.5,-100.0 30.5,-100.0 30.5,-97.0 21.5,-97.0 21.5,-100.0 12.5,-100.0 12.5,-97.0 3.5,-97.0 3.5,-100.0 -5.5,-100.0 -5.5,-97.0 -14.5,-97.0 -14.5,-100.0 -23.5,-100.0 -23.5,-97.0 -32.5,-97.0 -32.5,-100.0 -41.5,-100.0 -41.5,-97.0 -50.5,-97.0 -50.5,-100.0 -59.5,-100.0 -59.5,-97.0 -68.5,-97.0 -68.5,-100.0 -77.5,-100.0 -77.5,-97.0 -86.5,-97.0 -86.5,-100.0 -100.0,-100.0 -100.0,-93.5 -100.0,-84.5 -97.0,-84.5 -97.0,-75.5 -100.0,-75.5 -100.0,-66.5 -97.0,-66.5 -97.0,-57.5 -100.0,-57.5 -100.0,-48.5 -97.0,-48.5 -97.0,-39.5 -100.0,-39.5 -100.0,-30.5 -97.0,-30.5 -97.0,-21.5 -100.0,-21.5 -100.0,-12.5 -97.0,-12.5 -97.0,-3.5 -100.0,-3.5 -100.0,5.5 -97.0,5.5 -97.0,14.5 -100.0,14.5 -100.0,23.5 -97.0,23.5 -97.0,32.5 -100.0,32.5 -100.0,41.5 -97.0,41.5 -97.0,50.5 -100.0,50.5 -100.0,59.5 -97.0,59.5 -97.0,68.5 -100.0,68.5 -100.0,77.5 -97.0,77.5 -97.0,86.5 -100.0,86.5 -100.0,100.0" />
    </g>
    <g transform="translate(708.0, 108.0)">
      <polygon points="-100.0,100.0 -93.5,100.0 -84.5,100.0 -84.5,103.0 -75.5,103.0 -75.5,100.0 -66.5,100.0 -66.5,103.0 -57.5,103.0 -57.5,100.0 -48.5,100.0 -48.5,103.0 -39.5,103.0 -39.5,100.0 -30.5,100.0 -30.5,103.0 -21.5,103.0 -21.5,100.0 -12.5,100.0 -12.5,103.0 -3.5,103.0 -3.5,100.0 5.5,100.0 5.5,103.0 14.5,103.0 14.5,100.0 23.5,100.0 23.5,103.0 32.5,103.0 32.5,100.0 41.5,100.0 41.5,103.0 50.5,103.0 50.5,100.0 59.5,100.0 59.5,103.0 68.5,103.0 68.5,100.0 77.5,100.0 77.5,103.0 86.5,103.0 86.5,100.0 100.0,100.0 100.0,93.5 100.0,84.5 103.0,84.5 103.0,75.5 100.0,75.5 100.0,66.5 103.0,66.5 103.0,57.5 100.0,57.5 100.0,48.5 103.0,48.5 103.0,39.5 100.0,39.5 100.0,30.5 103.0,30.5 103.0,21.5 100.0,21.5 100.0,12.5 103.0,12.5 103.0,3.5 100.0,3.5 100.0,-5.5 103.0,-5.5 103.0,-14.5 100.0,-14.5 100.0,-23.5 103.0,-23.5 103.0,-32.5 100.0,-32.5 100.0,-41.5 103.0,-41.5 103.0,-50.5 100.0,-50.5 100.0,-59.5 103.0,-59.5 103.0,-68.5 100.0,-68.5 100.0,-77.5 103.0,-77.5 103.0,-86.5 100.0,-86.5 100.0,-100.0 93.5,-100.0 84.5,-100.0 84.5,-103.0 75.5,-103.0 75.5,-100.0 66.5,-100.0 66.5,-103.0 57.5,-103.0 57.5,-100.0 48.5,-100.0 48.5,-103.0 39.5,-103.0 39.5,-100.0 30.5,-100.0 30.5,-103.0 21.5,-103.0 21.5,-100.0 12.5,-100.0 12.5,-103.0 3.5,-103.0 3.5,-100.0 -5.5,-100.0 -5.5,-103.0 -14.5,-103.0 -14.5,-100.0 -23.5,-100.0 -23.5,-103.0 -32.5,-103.0 -32.5,-100.0 -41.5,-100.0 -41.5,-103.0 -50.5,-103.0 -50.5,-100.0 -59.5,-100.0 -59.5,-103.0 -68.5,-103.0 -68.5,-100.0 -77.5,-100.0 -77.5,-103.0 -86.5,-103.0 -86.5,-100.0 -100.0,-100.0 -100.0,-93.5 -100.0,-84.5 -103.0,-84.5 -103.0,-75.5 -100.0,-75.5 -100.0,-66.5 -103.0,-66.5 -103.0,-57.5 -100.0,-57.5 -100.0,-48.5 -103.0,-48.5 -103.0,-39.5 -100.0,-39.5 -100.0,-30.5 -103.0,-30.5 -103.0,-21.5 -100.0,-21.5 -100.0,-12.5 -103.0,-12.5 -103.0,-3.5 -100.0,-3.5 -100.0,5.5 -103.0,5.5 -103.0,14.5 -100.0,14.5 -100.0,23.5 -103.0,23.5 -103.0,32.5 -100.0,32.5 -100.0,41.5 -103.0,41.5 -103.0,50.5 -100.0,50.5 -100.0,59.5 -103.0,59.5 -103.0,68.5 -100.0,68.5 -100.0,77.5 -103.0,77.5 -103.0,86.5 -100.0,86.5 -100.0,100.0" />
    </g>
    <g transform="translate(708.0, 408.0)">
      <polygon points="-100.0,100.0 -93.5,100.0 -84.5,100.0 -84.5,103.0 -75.5,103.0 -75.5,100.0 -66.5,100.0 -66.5,103.0 -57.5,103.0 -57.5,100.0 -48.5,100.0 -48.5,103.0 -39.5,103.0 -39.5,100.0 -30.5,100.0 -30.5,103.0 -21.5,103.0 -21.5,100.0 -12.5,100.0 -12.5,103.0 -3.5,103.0 -3.5,100.0 5.5,100.0 5.5,103.0 14.5,103.0 14.5,100.0 23.5,100.0 23.5,103.0 32.5,103.0 32.5,100.0 41.5,100.0 41.5,103.0 50.5,103.0 50.5,100.0 59.5,100.0 59.5,103.0 68.5,103.0 68.5,100.0 77.5,100.0 77.5,103.0 86.5,103.0 86.5,100.0 100.0,100.0 100.0,93.5 100.0,84.5 103.0,84.5 103.0,75.5 100.0,75.5 100.0,66.5 103.0,66.5 103.0,57.5 100.0,57.5 100.0,48.5 103.0,48.5 103.0,39.5 100.0,39.5 100.0,30.5 103.0,30.5 103.0,21.5 100.0,21.5 100.0,12.5 103.0,12.5 103.0,3.5 100.0,3.5 100.0,-5.5 103.0,-5.5 103.0,-14.5 100.0,-14.5 100.0,-23.5 103.0,-23.5 103.0,-32.5 100.0,-32.5 100.0,-41.5 103.0,-41.5 103.0,-50.5 100.0,-50.5 100.0,-59.5 103.0,-59.5 103.0,-68.5 100.0,-68.5 100.0,-77.5 103.0,-77.5 103.0,-86.5 100.0,-86.5 100.0,-100.0 93.5,-100.0 84.5,-100.0 84.5,-103.0 75.5,-103.0 75.5,-100.0 66.5,-100.0 66.5,-103.0 57.5,-103.0 57.5,-100.0 48.5,-100.0 48.5,-103.0 39.5,-103.0 39.5,-100.0 30.5,-100.0 30.5,-103.0 21.5,-103.0 21.5,-100.0 12.5,-100.0 12.5,-103.0 3.5,-103.0 3.5,-100.0 -5.5,-100.0 -5.5,-103.0 -14.5,-103.0 -14.5,-100.0 -23.5,-100.0 -23.5,-103.0 -32.5,-103.0 -32.5,-100.0 -41.5,-100.0 -41.5,-103.0 -50.5,-103.0 -50.5,-100.0 -59.5,-100.0 -59.5,-103.0 -68.5,-103.0 -68.5,-100.0 -77.5,-100.0 -77.5,-103.0 -86.5,-103.0 -86.5,-100.0 -100.0,-100.0 -100.0,-93.5 -100.0,-84.5 -103.0,-84.5 -103.0,-75.5 -100.0,-75.5 -100.0,-66.5 -103.0,-66.5 -103.0,-57.5 -100.0,-57.5 -100.0,-48.5 -103.0,-48.5 -103.0,-39.5 -100.0,-39.5 -100.0,-30.5 -103.0,-30.5 -103.0,-21.5 -100.0,-21.5 -100.0,-12.5 -103.0,-12.5 -103.0,-3.5 -100.0,-3.5 -100.0,5.5 -103.0,5.5 -103.0,14.5 -100.0,14.5 -100.0,23.5 -103.0,23.5 -103.0,32.5 -100.0,32.5 -100.0,41.5 -103.0,41.5 -103.0,50.5 -100.0,50.5 -100.0,59.5 -103.0,59.5 -103.0,68.5 -100.0,68.5 -100.0,77.5 -103.0,77.5 -103.0,86.5 -100.0,86.5 -100.0,100.0" />
    </g>
  </g>
</svg>
