<?xml version="1.0" encoding="UTF-8" standalone="no"?>
<svg
   width="240.3779527559055"
   height="204.0944881889764"
   viewBox="0 0 240.3779527559055 204.0944881889764"
   version="1.1"
   id="svg1"
   sodipodi:docname="output.svg"
   inkscape:version="1.4.3 (0d15f75, 2025-12-25)"
   xmlns:inkscape="http://www.inkscape.org/namespaces/inkscape"
   xmlns:sodipodi="http://sodipodi.sourceforge.net/DTD/sodipodi-0.dtd"
   xmlns:xlink="http://www.w3.org/1999/xlink"
   xmlns="http://www.w3.org/2000/svg"
   xmlns:svg="http://www.w3.org/2000/svg"
   xmlns:inkstitch="http://inkstitch.org/namespace"><sodipodi:namedview
   id="namedview1"
   pagecolor="#ffffff"
   bordercolor="#000000"
   borderopacity="0.25"
   inkscape:showpageshadow="2"
   inkscape:pageopacity="0.0"
   inkscape:pagecheckerboard="0"
   inkscape:deskcolor="#d1d1d1"
   inkscape:zoom="2.9415258"
   inkscape:cx="113.03657"
   inkscape:cy="40.285215"
   inkscape:window-width="1282"
   inkscape:window-height="674"
   inkscape:window-x="142"
   inkscape:window-y="82"
   inkscape:window-maximized="0"
   inkscape:current-layer="g1" />
svg<metadata
   id="metadata1">
  <inkstitch:min_stitch_len_mm>0.1</inkstitch:min_stitch_len_mm>
  <inkstitch:collapse_len_mm>3</inkstitch:collapse_len_mm>
  <inkstitch:inkstitch_svg_version>3</inkstitch:inkstitch_svg_version>
</metadata>
<defs
   id="defs1">
  <symbol
     id="inkstitch_trim"
     transform="scale(0.25, 0.25)"
     style="opacity:0.7">
    <title
       id="inkstitch_title9282">Trim the thread after sewing this object.</title>
    <path
       id="inkstitch_circle13405"
       d="m 9.2465284,-8.6e-6 c 1.8e-6,2.452339 -0.9741847,4.804237 -2.7082493,6.538304 C 4.8042146,8.2723614 2.4523174,9.2465504 -2.1625959e-5,9.2465514 -2.4523623,9.2465534 -4.8042621,8.2723654 -6.5383288,6.5382984 -8.2723956,4.8042314 -9.2465834,2.4523324 -9.2465816,-8.6e-6 c 6e-7,-2.452339 0.9741895,-4.804237 2.708256,-6.538301 1.7340665,-1.734065 4.0859648,-2.708252 6.538303974041,-2.70825 C 5.1067066,-9.2465576 9.2465271,-5.1067366 9.2465284,-8.6e-6 c 0,0 0,0 0,0"
       style="opacity:1;vector-effect:none;fill:#fafafa;fill-opacity:1;fill-rule:evenodd;stroke:#003399;stroke-width:1.06500006;stroke-linecap:round;stroke-linejoin:miter;stroke-miterlimit:4;stroke-dasharray:3.19500017, 3.19500017;stroke-dashoffset:0;stroke-opacity:1"
       inkscape:connector-curvature="0" />
    <path
       style="color:#000000;font-style:normal;font-variant:normal;font-weight:normal;font-stretch:normal;font-size:medium;line-height:normal;font-family:sans-serif;font-variant-ligatures:normal;font-variant-position:normal;font-variant-caps:normal;font-variant-numeric:normal;font-variant-alternates:normal;font-feature-settings:normal;text-indent:0;text-align:start;text-decoration:none;text-decoration-line:none;text-decoration-style:solid;text-decoration-color:#000000;letter-spacing:normal;word-spacing:normal;text-transform:none;writing-mode:lr-tb;direction:ltr;text-orientation:mixed;dominant-baseline:auto;baseline-shift:baseline;text-anchor:start;white-space:normal;shape-padding:0;clip-rule:nonzero;display:inline;overflow:visible;visibility:visible;opacity:1;isolation:auto;mix-blend-mode:normal;color-interpolation:sRGB;color-interpolation-filters:linearRGB;solid-color:#000000;solid-opacity:1;vector-effect:none;fill:#050505;fill-opacity:1;fill-rule:evenodd;stroke:none;stroke-width:1.41421342;stroke-linecap:butt;stroke-linejoin:miter;stroke-miterlimit:4;stroke-dasharray:none;stroke-dashoffset:0;stroke-opacity:1;color-rendering:auto;image-rendering:auto;shape-rendering:auto;text-rendering:auto;enable-background:accumulate"
       d="m -3.0000256,-5.9834096 c -1.30575,0 -2.375,1.06924 -2.375,2.375 0,1.30575 1.06925,2.375 2.375,2.375 0.58687,0 1.11944,-0.22369 1.53516,-0.58007 0,0 0.61717997,1.62109 0.61717997,1.62109 0,0 -2.29881997,6.01758 -2.29881997,6.01758 0.98655,-0.12511 1.23728,-0.26171 1.67382,-0.97461 0,0 1.33007997,-3.18945 1.33007997,-3.18945 0,0 1.23633003,3.25 1.23633003,3.25 0.23227,0.77906 0.84315,0.79218 1.57813,1.07226 0,0 -2.05469003,-6.14258 -2.05469003,-6.14258 0,0 0.73047003,-1.75 0.73047003,-1.75 0.42849,0.41682 1.01136,0.67578 1.65234,0.67578 1.30575,0 2.375,-1.06925 2.375,-2.375 0,-1.30576 -1.06925,-2.375 -2.375,-2.375 -1.06233,0 -1.95701,0.71265 -2.25781003,1.67969 0,0 -0.0117,-0.0156 -0.0117,-0.0156 0,0 -0.80274,2.10156 -0.80274,2.10156 0,0 -0.59179,-1.76562 -0.59179,-1.76562 -0.18242,-1.12808 -1.15864997,-2 -2.33593997,-2 0,0 -2e-5,-3e-5 -2e-5,-3e-5 m 0,1 c 0.76531,0 1.375,0.60968 1.375,1.375 0,0.76531 -0.60969,1.375 -1.375,1.375 -0.76531,0 -1.375,-0.60969 -1.375,-1.375 0,-0.76532 0.60969,-1.375 1.375,-1.375 0,0 0,0 0,0 m 6,0 c 0.76531,0 1.375,0.60968 1.375,1.375 0,0.76531 -0.60969,1.375 -1.375,1.375 -0.76531,0 -1.375,-0.60969 -1.375,-1.375 0,-0.76532 0.60969,-1.375 1.375,-1.375 0,0 0,0 0,0"
       id="inkstitch_path13416"
       inkscape:connector-curvature="0" />
  </symbol>
</defs>
<g
   inkscape:label="output.jef"
   inkscape:groupmode="layer"
   transform="translate(120.189, 102.047)"
   id="g1">
  <g
     id="__color_block_0__"
     inkscape:label="color block 1">
    <path
       id="object8700"
       style="stroke: #0A2E84; stroke-width: 0.4; fill: none;stroke-linejoin: round;stroke-linecap: round;"
       d="M4.1574803149606305 97.13385826771655 1.5118110236220474 92.22047244094489 7.181102362204726 92.22047244094489 9.826771653543307 87.30708661417324 7.181102362204726 82.7716535433071 1.5118110236220474 82.7716535433071 4.1574803149606305 77.85826771653544 1.5118110236220474 72.94488188976379 7.181102362204726 72.94488188976379 9.826771653543307 68.03149606299213 12.850393700787402 72.94488188976379 18.14173228346457 72.94488188976379 21.165354330708663 68.03149606299213 18.14173228346457 63.11811023622048 23.811023622047248 63.11811023622048 26.83464566929134 58.20472440944883 23.811023622047248 53.66929133858268 18.14173228346457 53.66929133858268 21.165354330708663 48.75590551181103 18.14173228346457 43.84251968503937 12.850393700787402 43.84251968503937 9.826771653543307 48.75590551181103 7.181102362204726 43.84251968503937 1.5118110236220474 43.84251968503937 4.1574803149606305 38.92913385826772 1.5118110236220474 34.01574803149607 7.181102362204726 34.01574803149607 9.826771653543307 29.102362204724415 7.181102362204726 24.56692913385827 1.5118110236220474 24.56692913385827 4.1574803149606305 19.653543307086615 1.5118110236220474 14.740157480314963 7.181102362204726 14.740157480314963 9.826771653543307 9.826771653543307 12.850393700787402 14.740157480314963 18.14173228346457 14.740157480314963 21.165354330708663 9.826771653543307 18.14173228346457 4.913385826771654 23.811023622047248 4.913385826771654 26.83464566929134 0.37795275590551186 29.480314960629926 4.913385826771654 35.14960629921261 4.913385826771654 32.12598425196851 9.826771653543307 35.14960629921261 14.740157480314963 40.81889763779528 14.740157480314963 43.46456692913386 9.826771653543307 46.488188976377955 14.740157480314963 51.779527559055126 14.740157480314963 54.80314960629922 9.826771653543307 51.779527559055126 4.913385826771654 57.44881889763781 4.913385826771654 60.472440944881896 0.37795275590551186 57.44881889763781 -4.535433070866143 51.779527559055126 -4.535433070866143 54.80314960629922 -9.448818897637796 51.779527559055126 -14.362204724409452 57.44881889763781 -14.362204724409452 60.472440944881896 -19.275590551181104 63.11811023622048 -14.362204724409452 68.78740157480316 -14.362204724409452 71.43307086614173 -19.275590551181104 68.78740157480316 -24.18897637795276 74.45669291338584 -24.18897637795276 77.10236220472441 -28.724409448818903 71.43307086614173 -28.724409448818903 68.78740157480316 -24.18897637795276 65.76377952755907 -28.724409448818903 60.472440944881896 -28.724409448818903 57.44881889763781 -24.18897637795276 60.472440944881896 -19.275590551181104 54.80314960629922 -19.275590551181104 51.779527559055126 -14.362204724409452 49.13385826771654 -19.275590551181104 43.46456692913386 -19.275590551181104 46.488188976377955 -24.18897637795276 43.46456692913386 -28.724409448818903 37.795275590551185 -28.724409448818903 35.14960629921261 -24.18897637795276 32.12598425196851 -28.724409448818903 26.83464566929134 -28.724409448818903 23.811023622047248 -24.18897637795276 26.83464566929134 -19.275590551181104 21.165354330708663 -19.275590551181104 18.14173228346457 -14.362204724409452 21.165354330708663 -9.448818897637796 26.83464566929134 -9.448818897637796 23.811023622047248 -4.535433070866143 26.83464566929134 0.37795275590551186 21.165354330708663 0.37795275590551186 18.14173228346457 4.913385826771654 15.496062992125985 0.37795275590551186 9.826771653543307 0.37795275590551186 7.181102362204726 4.913385826771654 9.826771653543307 9.826771653543307 4.1574803149606305 9.826771653543307 1.5118110236220474 14.740157480314963 -1.1338582677165356 9.826771653543307 -6.803149606299213 9.826771653543307 -4.1574803149606305 4.913385826771654 -6.803149606299213 0.37795275590551186 -12.47244094488189 0.37795275590551186 -15.118110236220474 4.913385826771654 -18.14173228346457 0.37795275590551186 -23.811023622047248 0.37795275590551186 -20.78740157480315 -4.535433070866143 -23.811023622047248 -9.448818897637796 -18.14173228346457 -9.448818897637796 -15.118110236220474 -14.362204724409452 -18.14173228346457 -19.275590551181104 -23.811023622047248 -19.275590551181104 -20.78740157480315 -24.18897637795276 -23.811023622047248 -28.724409448818903 -29.102362204724415 -28.724409448818903 -32.12598425196851 -24.18897637795276 -34.771653543307096 -28.724409448818903 -40.44094488188976 -28.724409448818903 -43.46456692913386 -24.18897637795276 -40.44094488188976 -19.275590551181104 -46.110236220472444 -19.275590551181104 -48.75590551181103 -14.362204724409452 -51.779527559055126 -19.275590551181104 -57.44881889763781 -19.275590551181104 -54.425196850393704 -24.18897637795276 -57.44881889763781 -28.724409448818903 -62.74015748031496 -28.724409448818903 -65.76377952755907 -24.18897637795276 -68.40944881889764 -28.724409448818903 -74.07874015748033 -28.724409448818903 -71.43307086614173 -24.18897637795276 -65.76377952755907 -24.18897637795276 -68.40944881889764 -19.275590551181104 -65.76377952755907 -14.362204724409452 -60.09448818897638 -14.362204724409452 -57.44881889763781 -19.275590551181104 -54.425196850393704 -14.362204724409452 -48.75590551181103 -14.362204724409452 -51.779527559055126 -9.448818897637796 -48.75590551181103 -4.535433070866143 -54.425196850393704 -4.535433070866143 -57.44881889763781 0.37795275590551186 -54.425196850393704 4.913385826771654 -48.75590551181103 4.913385826771654 -51.779527559055126 9.826771653543307 -48.75590551181103 14.740157480314963 -43.46456692913386 14.740157480314963 -40.44094488188976 9.826771653543307 -37.795275590551185 14.740157480314963 -32.12598425196851 14.740157480314963 -29.102362204724415 9.826771653543307 -32.12598425196851 4.913385826771654 -26.45669291338583 4.913385826771654 -23.811023622047248 0.37795275590551186 -20.78740157480315 4.913385826771654 -15.118110236220474 4.913385826771654 -18.14173228346457 9.826771653543307 -15.118110236220474 14.740157480314963 -9.826771653543307 14.740157480314963 -6.803149606299213 9.826771653543307 -4.1574803149606305 14.740157480314963 1.5118110236220474 14.740157480314963 -1.1338582677165356 19.653543307086615 1.5118110236220474 24.56692913385827 -4.1574803149606305 24.56692913385827 -6.803149606299213 29.102362204724415 -4.1574803149606305 34.01574803149607 1.5118110236220474 34.01574803149607 -1.1338582677165356 38.92913385826772 1.5118110236220474 43.84251968503937 -4.1574803149606305 43.84251968503937 -6.803149606299213 48.75590551181103 -9.826771653543307 43.84251968503937 -15.118110236220474 43.84251968503937 -18.14173228346457 48.75590551181103 -15.118110236220474 53.66929133858268 -20.78740157480315 53.66929133858268 -23.811023622047248 58.20472440944883 -20.78740157480315 63.11811023622048 -15.118110236220474 63.11811023622048 -18.14173228346457 68.03149606299213 -15.118110236220474 72.94488188976379 -9.826771653543307 72.94488188976379 -6.803149606299213 68.03149606299213 -4.1574803149606305 72.94488188976379 1.5118110236220474 72.94488188976379 -1.1338582677165356 77.85826771653544 1.5118110236220474 82.7716535433071 -4.1574803149606305 82.7716535433071 -6.803149606299213 87.30708661417324 -4.1574803149606305 92.22047244094489 1.5118110236220474 92.22047244094489 -1.1338582677165356 97.13385826771655 1.5118110236220474 102.0472440944882"
       transform=""
       inkstitch:stroke_method="manual_stitch" />
  </g>
  <g
     id="__color_block_1__"
     inkscape:label="color block 2"
     transform="matrix(0.90715081,0,0,0.83320314,0.30473193,5.0063559)">
    <path
       id="object806"
       style="fill:none;stroke:#ff0000;stroke-width:0.4;stroke-linecap:round;stroke-linejoin:round"
       d="m -99.023622,-102.04724 h -3.023618 -2.64567 -2.64567 -3.02362 -2.64567 l -1.51182,1.88976 -1.51181,2.267716 -1.13385,1.889764 -1.51182,2.267717 -1.51181,1.889763 v 2.64567 2.645669 3.023622 2.645669 2.64567 l 1.51181,1.889763 1.51182,2.267717 1.13385,1.889764 1.51181,2.267716 1.51182,1.889764 h 2.64567 3.02362 2.64567 2.64567 3.023618 2.645669 l 7.181103,-12.850394 v -2.645669 -3.023622 -2.645669 -2.64567 l 1.511811,-1.889763 1.133858,-2.267717 1.511811,-1.889764 1.511811,-2.267716 1.511811,-1.88976 h 2.267717 2.267716 2.645669 2.267717 l 1.511811,1.88976 1.511811,2.267716 1.133858,1.889764 1.511811,2.267717 1.511811,1.889763 v 2.64567 2.645669 3.023622 2.645669 2.64567 l -1.511811,1.889763 -1.511811,2.267717 -1.133858,1.889764 -1.511811,2.267716 -1.511811,1.889764 h -2.267717 -2.645669 -2.267716 -2.267717 l -1.511811,-1.889764 -1.511811,-2.267716 -1.511811,-1.889764 -1.133858,-2.267717 -1.511811,-1.889763"
       inkstitch:stroke_method="manual_stitch" />
    <g
       id="command_group7888"
       inkscape:label="Ink/Stitch Command: Trim thread after sewing this object">
      <path
         id="command_connector5713"
         d="m -118.70369,-110.25223 8.4339,8.20499"
         style="vector-effect:non-scaling-stroke;fill:none;stroke:#000000;stroke-width:1;stroke-opacity:0.5;-inkscape-stroke:hairline"
         inkscape:connection-start="#command_use8261"
         inkscape:connection-end="#object806"
         inkscape:label="connector"
         inkscape:connector-type="polyline"
         inkscape:connector-curvature="0" />
      <use
         id="command_use8261"
         xlink:href="#inkstitch_trim"
         height="100%"
         width="100%"
         x="-118.70434"
         y="-110.26119"
         inkscape:label="command marker" />
    </g>
    <path
       id="object9889"
       style="fill:none;stroke:#ff0000;stroke-width:0.4;stroke-linecap:round;stroke-linejoin:round"
       d="m -58.204724,-99.023622 v 2.645669 2.64567 3.023622 3.023622 2.645669 2.645669 3.023622 3.023622 2.64567 2.645669 3.023622 h 3.023622 3.023622 2.645669 3.023622 3.023622 3.023622 3.023622 3.023622"
       inkstitch:stroke_method="manual_stitch" />
    <g
       id="command_group169"
       inkscape:label="Ink/Stitch Command: Trim thread after sewing this object">
      <path
         id="command_connector7621"
         d="m -68.049289,-66.323466 9.844565,-7.786953"
         style="vector-effect:non-scaling-stroke;fill:none;stroke:#000000;stroke-width:1;stroke-opacity:0.5;-inkscape-stroke:hairline"
         inkscape:connection-start="#command_use3210"
         inkscape:connection-end="#object9889"
         inkscape:label="connector"
         inkscape:connector-type="polyline"
         inkscape:connector-curvature="0" />
      <use
         id="command_use3210"
         xlink:href="#inkstitch_trim"
         height="100%"
         width="100%"
         x="-68.049934"
         y="-66.332428"
         inkscape:label="command marker" />
    </g>
    <path
       id="object8260"
       style="fill:none;stroke:#ff0000;stroke-width:0.4;stroke-linecap:round;stroke-linejoin:round"
       d="M -27.212598,-99.023622 V -96 v 3.023622 3.023622 2.645669 3.023622 3.023622 3.023623 l 1.133858,1.889763 1.511811,2.267717 1.511811,1.889764 1.511811,2.267716 1.511811,1.889764 h 2.267716 2.267717 2.267717 2.645669 l 1.5118109,-1.889764 1.1338582,-2.267716 1.511811,-1.889764 1.5118111,-2.267717 1.511811,-1.889763 v -3.023623 -3.023622 -3.023622 -2.645669 -3.023622 V -96 v -3.023622 -3.023618"
       inkstitch:stroke_method="manual_stitch" />
    <g
       id="command_group6696"
       inkscape:label="Ink/Stitch Command: Trim thread after sewing this object">
      <path
         id="command_connector6370"
         d="m -37.206882,-78.114756 9.994284,-3.160146"
         style="vector-effect:non-scaling-stroke;fill:none;stroke:#000000;stroke-width:1;stroke-opacity:0.5;-inkscape-stroke:hairline"
         inkscape:connection-start="#command_use6649"
         inkscape:connection-end="#object8260"
         inkscape:label="connector"
         inkscape:connector-type="polyline"
         inkscape:connector-curvature="0" />
      <use
         id="command_use6649"
         xlink:href="#inkstitch_trim"
         height="100%"
         width="100%"
         x="-37.207527"
         y="-78.123718"
         inkscape:label="command marker" />
    </g>
    <path
       id="object4947"
       style="fill:none;stroke:#ff0000;stroke-width:0.4;stroke-linecap:round;stroke-linejoin:round"
       d="m 3.7795276,-71.055118 v -2.645669 -2.64567 -3.023622 -3.023622 -2.645669 -2.645669 -3.023622 -3.023622 -2.64567 -2.645669 -3.023618 l 1.511811,2.267712 1.8897638,2.64567 1.511811,2.267716 1.8897636,2.64567 1.511811,2.267716 1.889764,2.645669 1.511811,2.267717 1.889764,-2.267717 1.511811,-2.645669 1.889764,-2.267716 1.511811,-2.64567 1.889763,-2.267716 1.511811,-2.64567 1.889764,-2.267712 v 3.023618 2.645669 2.64567 3.023622 3.023622 2.645669 2.645669 3.023622 3.023622 2.64567 2.645669 3.023622 l 6.80315,-3.023622 v -2.645669 -2.64567 -3.023622 -3.023622 -2.645669 -2.645669 -3.023622 -3.023622 -2.64567 -2.645669 -3.023618 h 3.023622 2.645669 3.023622 2.645669 2.64567 3.023622 l 1.133858,1.51181 1.133858,1.889761 V -96 v 2.267717 2.645669 2.645669 l -1.133858,1.511811 -1.133858,1.889764 h -3.023622 -2.64567 -2.645669 -3.023622 -2.645669 -3.023622 3.023622 2.645669 3.023622 2.645669 2.64567 3.023622 l 1.133858,1.889764 1.133858,1.511811 v 2.645669 2.645669 2.267717 2.645669 l -1.133858,1.889764 -1.133858,1.511811 h -3.023622 -2.64567 -2.645669 -3.023622 -2.645669 -3.023622"
       inkstitch:stroke_method="manual_stitch" />
    <g
       id="command_group8644"
       inkscape:label="Ink/Stitch Command: Trim thread after sewing this object">
      <path
         id="command_connector4800"
         d="m 17.609122,-67.662326 9.981429,-15.604429"
         style="vector-effect:non-scaling-stroke;fill:none;stroke:#000000;stroke-width:1;stroke-opacity:0.5;-inkscape-stroke:hairline"
         inkscape:connection-start="#command_use7951"
         inkscape:connection-end="#object4947"
         inkscape:label="connector"
         inkscape:connector-type="polyline"
         inkscape:connector-curvature="0" />
      <use
         id="command_use7951"
         xlink:href="#inkstitch_trim"
         height="100%"
         width="100%"
         x="17.608477"
         y="-67.671288"
         inkscape:label="command marker" />
    </g>
    <path
       id="object3965"
       style="fill:none;stroke:#ff0000;stroke-width:0.4;stroke-linecap:round;stroke-linejoin:round"
       d="m 73.322835,-102.04724 h 2.645669 3.023622 2.645669 3.023622 l -7.181102,3.023618 v 2.645669 2.64567 3.023622 3.023622 2.645669 2.645669 3.023622 3.023622 2.64567 2.645669 3.023622 h -4.15748 2.645669 3.023622 2.645669 3.023622"
       inkstitch:stroke_method="manual_stitch" />
    <g
       id="command_group2794"
       inkscape:label="Ink/Stitch Command: Trim thread after sewing this object">
      <path
         id="command_connector5912"
         d="M 64.126431,-64.107432 77.480315,-82.910633"
         style="vector-effect:non-scaling-stroke;fill:none;stroke:#000000;stroke-width:1;stroke-opacity:0.5;-inkscape-stroke:hairline"
         inkscape:connection-start="#command_use2866"
         inkscape:connection-end="#object3965"
         inkscape:label="connector"
         inkscape:connector-type="polyline"
         inkscape:connector-curvature="0" />
      <use
         id="command_use2866"
         xlink:href="#inkstitch_trim"
         height="100%"
         width="100%"
         x="64.125786"
         y="-64.116394"
         inkscape:label="command marker" />
    </g>
    <path
       id="object6950"
       style="fill:none;stroke:#ff0000;stroke-width:0.4;stroke-linecap:round;stroke-linejoin:round"
       d="m 96.377953,-71.055118 v -2.645669 -2.64567 -3.023622 -3.023622 -2.645669 -2.645669 -3.023622 -3.023622 -2.64567 -2.645669 -3.023618 h 3.023622 3.023625 3.02362 3.02362 3.02362 3.02363 2.64566 3.02363 v 3.023618 2.645669 2.64567 3.023622 3.023622 2.645669 2.645669 3.023622 3.023622 2.64567 2.645669 3.023622"
       inkstitch:stroke_method="manual_stitch" />
    <g
       id="command_group5357"
       inkscape:label="Ink/Stitch Command: Trim thread after sewing this object">
      <path
         id="command_connector5118"
         d="m 106.7649,-92.038279 1.51857,6.998911"
         style="vector-effect:non-scaling-stroke;fill:none;stroke:#000000;stroke-width:1;stroke-opacity:0.5;-inkscape-stroke:hairline"
         inkscape:connection-start="#command_use3772"
         inkscape:connection-end="#object6950"
         inkscape:label="connector"
         inkscape:connector-type="polyline"
         inkscape:connector-curvature="0" />
      <use
         id="command_use3772"
         xlink:href="#inkstitch_trim"
         height="100%"
         width="100%"
         x="106.76425"
         y="-92.047241"
         inkscape:label="command marker" />
    </g>
    <path
       id="object2237"
       style="fill:none;stroke:#ff0000;stroke-width:0.4;stroke-linecap:round;stroke-linejoin:round"
       d="m 99.401575,-85.03937 h 3.023625 3.02362 3.02362 3.02362 3.02363 2.64566 3.02363"
       inkstitch:stroke_method="manual_stitch" />
  </g>
</g>
</svg>
